<svg width="1034" height="587" viewBox="0 0 1034 587" fill="none" xmlns="http://www.w3.org/2000/svg">
<path d="M484.514 21.9719L392 114.486L613.197 114.486L527.672 22.7301C516.094 10.3079 496.522 9.96408 484.514 21.9719Z" fill="white"/>
<path d="M541.281 316.574L613.113 151.599H552.113C535.544 151.599 522.113 165.03 522.113 181.599V312.582C522.113 323.425 536.953 326.515 541.281 316.574Z" fill="white"/>
<path d="M465.944 316.574L394.113 151.599H455.113C471.681 151.599 485.113 165.03 485.113 181.599V312.582C485.113 323.425 470.273 326.515 465.944 316.574Z" fill="white"/>
<path d="M3.24 535L48.06 403.6H89.82L135.9 535H109.62L70.56 421.06L79.74 425.02H57.24L66.6 421.06L28.8 535H3.24ZM34.56 500.08L42.66 478.48H95.94L103.86 500.08H34.56ZM190.193 573.52C185.513 573.52 180.713 573.34 175.793 572.98C170.993 572.62 166.493 572.14 162.293 571.54V550.66C166.613 551.14 171.233 551.56 176.153 551.92C181.073 552.4 185.693 552.64 190.013 552.64C198.053 552.64 204.533 551.68 209.453 549.76C214.493 547.84 218.153 544.78 220.433 540.58C222.833 536.5 224.033 531.28 224.033 524.92V505.66L229.433 493.42C229.073 502.42 227.213 510.1 223.853 516.46C220.493 522.7 215.933 527.5 210.173 530.86C204.413 534.1 197.753 535.72 190.193 535.72C183.473 535.72 177.353 534.46 171.833 531.94C166.433 529.42 161.753 525.94 157.793 521.5C153.953 517.06 150.953 511.84 148.793 505.84C146.633 499.84 145.553 493.42 145.553 486.58V482.8C145.553 475.96 146.633 469.6 148.793 463.72C151.073 457.72 154.253 452.5 158.333 448.06C162.413 443.62 167.273 440.2 172.913 437.8C178.553 435.4 184.793 434.2 191.633 434.2C199.673 434.2 206.633 435.94 212.513 439.42C218.513 442.9 223.193 447.94 226.553 454.54C229.913 461.14 231.773 469.24 232.133 478.84L227.812 479.56V437.26H247.613V523.48C247.613 535.36 245.573 544.96 241.493 552.28C237.413 559.6 231.113 564.94 222.593 568.3C214.193 571.78 203.393 573.52 190.193 573.52ZM197.393 514.3C202.193 514.3 206.573 513.22 210.533 511.06C214.493 508.9 217.673 505.78 220.073 501.7C222.473 497.62 223.673 492.7 223.673 486.94V480.64C223.673 475.12 222.413 470.44 219.893 466.6C217.493 462.76 214.313 459.88 210.353 457.96C206.393 455.92 202.073 454.9 197.393 454.9C192.113 454.9 187.433 456.16 183.353 458.68C179.393 461.08 176.273 464.5 173.993 468.94C171.713 473.38 170.573 478.66 170.573 484.78C170.573 490.78 171.713 496 173.993 500.44C176.273 504.88 179.393 508.3 183.353 510.7C187.433 513.1 192.113 514.3 197.393 514.3ZM318.644 538.42C310.244 538.42 302.864 536.98 296.504 534.1C290.264 531.22 285.044 527.38 280.844 522.58C276.764 517.66 273.644 512.2 271.484 506.2C269.444 500.2 268.424 494.08 268.424 487.84V484.42C268.424 477.94 269.444 471.7 271.484 465.7C273.644 459.58 276.764 454.18 280.844 449.5C285.044 444.7 290.204 440.92 296.324 438.16C302.444 435.28 309.524 433.84 317.564 433.84C328.124 433.84 336.944 436.18 344.024 440.86C351.224 445.42 356.624 451.48 360.224 459.04C363.824 466.48 365.624 474.52 365.624 483.16V492.16H279.044V476.86H349.964L342.224 484.42C342.224 478.18 341.324 472.84 339.524 468.4C337.724 463.96 334.964 460.54 331.244 458.14C327.644 455.74 323.084 454.54 317.564 454.54C312.044 454.54 307.364 455.8 303.524 458.32C299.684 460.84 296.744 464.5 294.704 469.3C292.784 473.98 291.824 479.62 291.824 486.22C291.824 492.34 292.784 497.8 294.704 502.6C296.624 507.28 299.564 511 303.524 513.76C307.484 516.4 312.524 517.72 318.644 517.72C324.764 517.72 329.744 516.52 333.584 514.12C337.424 511.6 339.884 508.54 340.964 504.94H364.004C362.564 511.66 359.804 517.54 355.724 522.58C351.644 527.62 346.424 531.52 340.064 534.28C333.824 537.04 326.684 538.42 318.644 538.42ZM283.724 424.84L302.804 387.94H332.684L351.584 424.84H330.704L318.464 399.82H316.484L304.244 424.84H283.724ZM386.525 535V437.26H406.325V479.2H404.525C404.525 469.24 405.845 460.96 408.485 454.36C411.125 447.64 415.025 442.6 420.185 439.24C425.465 435.88 432.005 434.2 439.805 434.2H440.885C452.525 434.2 461.345 437.98 467.345 445.54C473.345 452.98 476.345 464.14 476.345 479.02V535H451.325V476.86C451.325 470.86 449.585 466 446.105 462.28C442.745 458.56 438.065 456.7 432.065 456.7C425.945 456.7 420.965 458.62 417.125 462.46C413.405 466.18 411.545 471.22 411.545 477.58V535H386.525ZM546.623 538.42C538.103 538.42 530.723 536.98 524.483 534.1C518.363 531.22 513.203 527.38 509.003 522.58C504.923 517.78 501.863 512.38 499.823 506.38C497.783 500.38 496.763 494.26 496.763 488.02V484.6C496.763 478 497.783 471.7 499.823 465.7C501.983 459.58 505.163 454.18 509.363 449.5C513.563 444.7 518.723 440.92 524.843 438.16C531.083 435.28 538.283 433.84 546.443 433.84C554.963 433.84 562.583 435.52 569.303 438.88C576.023 442.12 581.363 446.68 585.323 452.56C589.403 458.44 591.683 465.28 592.163 473.08H567.863C567.263 468.04 565.103 463.84 561.383 460.48C557.783 457.12 552.803 455.44 546.443 455.44C540.923 455.44 536.303 456.76 532.583 459.4C528.983 462.04 526.283 465.7 524.483 470.38C522.683 474.94 521.783 480.22 521.783 486.22C521.783 491.98 522.623 497.2 524.303 501.88C526.103 506.56 528.803 510.22 532.403 512.86C536.123 515.5 540.863 516.82 546.623 516.82C550.943 516.82 554.663 516.04 557.783 514.48C560.903 512.92 563.363 510.76 565.163 508C567.083 505.24 568.283 502.12 568.763 498.64H593.063C592.583 506.56 590.243 513.52 586.043 519.52C581.963 525.4 576.503 530.02 569.663 533.38C562.943 536.74 555.263 538.42 546.623 538.42ZM617.787 535V437.26H642.807V535H617.787ZM604.107 455.98V437.26H642.807V455.98H604.107ZM626.967 425.56C622.047 425.56 618.387 424.3 615.987 421.78C613.707 419.14 612.567 415.84 612.567 411.88C612.567 407.92 613.707 404.68 615.987 402.16C618.387 399.64 622.047 398.38 626.967 398.38C631.887 398.38 635.487 399.64 637.767 402.16C640.047 404.68 641.187 407.92 641.187 411.88C641.187 415.84 640.047 419.14 637.767 421.78C635.487 424.3 631.887 425.56 626.967 425.56ZM730.862 535V506.02H726.722V473.8C726.722 468.16 725.342 463.96 722.582 461.2C719.822 458.44 715.562 457.06 709.802 457.06C706.802 457.06 703.202 457.12 699.002 457.24C694.802 457.36 690.542 457.54 686.222 457.78C682.022 457.9 678.242 458.08 674.882 458.32V437.08C677.642 436.84 680.762 436.6 684.242 436.36C687.722 436.12 691.262 436 694.862 436C698.582 435.88 702.062 435.82 705.302 435.82C715.382 435.82 723.722 437.14 730.322 439.78C737.042 442.42 742.082 446.56 745.442 452.2C748.922 457.84 750.662 465.22 750.662 474.34V535H730.862ZM699.362 537.52C692.282 537.52 686.042 536.26 680.642 533.74C675.362 531.22 671.222 527.62 668.222 522.94C665.342 518.26 663.902 512.62 663.902 506.02C663.902 498.82 665.642 492.94 669.122 488.38C672.722 483.82 677.702 480.4 684.062 478.12C690.542 475.84 698.102 474.7 706.742 474.7H729.422V489.64H706.382C700.622 489.64 696.182 491.08 693.062 493.96C690.062 496.72 688.562 500.32 688.562 504.76C688.562 509.2 690.062 512.8 693.062 515.56C696.182 518.32 700.622 519.7 706.382 519.7C709.862 519.7 713.042 519.1 715.922 517.9C718.922 516.58 721.382 514.42 723.302 511.42C725.342 508.3 726.482 504.1 726.722 498.82L732.842 505.84C732.242 512.68 730.562 518.44 727.802 523.12C725.162 527.8 721.442 531.4 716.642 533.92C711.962 536.32 706.202 537.52 699.362 537.52ZM844.21 535V422.5H869.77V535H844.21ZM806.23 426.1V403.6H907.75V426.1H806.23ZM969.913 399.82C979.633 399.82 987.853 401.5 994.573 404.86C1001.41 408.1 1006.93 412.6 1011.13 418.36C1015.33 424.12 1018.39 430.84 1020.31 438.52C1022.23 446.08 1023.19 454.12 1023.19 462.64V470.56C1023.19 492.04 1017.73 508.36 1006.81 519.52C996.013 530.56 980.113 536.08 959.113 536.08C954.553 536.08 950.293 535.96 946.333 535.72C942.373 535.48 938.413 535.12 934.453 534.64V513.22C938.413 513.7 942.433 514.06 946.513 514.3C950.713 514.54 955.213 514.66 960.013 514.66C970.093 514.66 978.013 512.92 983.773 509.44C989.533 505.96 993.613 500.86 996.013 494.14C998.533 487.42 999.793 479.08 999.793 469.12V457.42L1005.55 449.14C1005.43 458.38 1003.57 466.06 999.973 472.18C996.493 478.18 991.633 482.74 985.393 485.86C979.153 488.86 972.013 490.36 963.973 490.36C954.613 490.36 946.633 488.5 940.033 484.78C933.433 481.06 928.333 475.9 924.733 469.3C921.253 462.7 919.513 455.02 919.513 446.26C919.513 437.14 921.553 429.1 925.633 422.14C929.713 415.06 935.473 409.6 942.913 405.76C950.473 401.8 959.473 399.82 969.913 399.82ZM970.453 421.24C964.813 421.24 960.013 422.32 956.053 424.48C952.093 426.52 949.093 429.4 947.053 433.12C945.013 436.84 943.993 441.1 943.993 445.9C943.993 450.82 944.953 455.14 946.873 458.86C948.913 462.58 951.853 465.46 955.693 467.5C959.533 469.54 964.153 470.56 969.553 470.56C974.713 470.56 979.393 469.66 983.593 467.86C987.913 465.94 991.273 463.18 993.673 459.58C996.193 455.86 997.453 451.3 997.453 445.9C997.453 441.22 996.433 437.02 994.393 433.3C992.473 429.58 989.473 426.64 985.393 424.48C981.433 422.32 976.453 421.24 970.453 421.24Z" fill="white"/>
</svg>
